HIERARCHY
ROOT Hips
{
	OFFSET 0.000000 0.000000 0.000000 
	CHANNELS 6 Xposition Yposition Zposition Yrotation Zrotation Xrotation 
	JOINT Lumbar
	{
		OFFSET 0.000000 0.000000 0.000000 
		CHANNELS 3 Zrotation Xrotation Yrotation
		JOINT Neck
		{
			OFFSET 0.000000 0.445665 0.000000 
			CHANNELS 3 Zrotation Xrotation Yrotation
			End Site
			{
				OFFSET 0.000000 0.227535 0.000000 
			}
		}
		JOINT RightShoulder
		{
			OFFSET 0.019635 0.377685 0.194865 
			CHANNELS 3 Zrotation Xrotation Yrotation
			JOINT RightElbow
			{
				OFFSET 0.000000 -0.243375 0.000000 
				CHANNELS 2 Zrotation Yrotation
				JOINT RightWrist
				{
					OFFSET 0.000000 -0.264825 0.000000 
					CHANNELS 2 Zrotation Xrotation
					End Site
					{
						OFFSET 0.006600 -0.176220 0.000990 
					}
				}
			}
		}
		JOINT LeftShoulder
		{
			OFFSET 0.019635 0.377685 -0.194865 
			CHANNELS 3 Zrotation Xrotation Yrotation
			JOINT LeftElbow
			{
				OFFSET 0.000000 -0.243375 0.000000 
				CHANNELS 2 Zrotation Yrotation
				JOINT LeftWrist
				{
					OFFSET 0.000000 -0.264825 0.000000 
					CHANNELS 2 Zrotation Xrotation
					End Site
					{
						OFFSET 0.006600 -0.176220 -0.000990 
					}
				}
			}
		}
	}
	JOINT RightHip
	{
		OFFSET 0.052140 -0.069960 0.075570 
		CHANNELS 3 Zrotation Xrotation Yrotation
		JOINT RightKnee
		{
			OFFSET 0.000000 -0.402270 0.000000 
			CHANNELS 1 Zrotation
			JOINT RightAnkle
			{
				OFFSET 0.000000 -0.404085 0.000000 
				CHANNELS 3 Zrotation Xrotation Yrotation
				End Site
				{
					OFFSET 0.204105 -0.089430 0.008415 
				}
			}
		}
	}
	JOINT LeftHip
	{
		OFFSET 0.052140 -0.069960 -0.075570 
		CHANNELS 3 Zrotation Xrotation Yrotation
		JOINT LeftKnee
		{
			OFFSET 0.000000 -0.402270 0.000000 
			CHANNELS 1 Zrotation
			JOINT LeftAnkle
			{
				OFFSET 0.000000 -0.404085 0.000000 
				CHANNELS 3 Zrotation Xrotation Yrotation
				End Site
				{
					OFFSET 0.204105 -0.089430 -0.008415 
				}
			}
		}
	}
}
MOTION
Frames: 27
Frame Time: 0.02
0.00779 -0.00162 -0.02006 -184.47164 -37.08652 -2.0932 48.62173 3.10667 -5.78161 -11.74896 4.51034 -0.82364 119.91021 -37.00295 40.63748 106.45128 115.7661 -18.79775 -11.0906 1.15601 57.4414 0.56949 74.03858 -98.97876 6.57216 -2.65602 42.51705 -3.98911 -4.216 -23.22465 -6.77168 -3.77523 -2.62334 45.72352 9.77037 -2.05974 -27.44376 -6.88768 2.8405 2.12169
0.00789 -0.00162 -0.01927 -184.62867 -37.17212 -2.09624 48.61462 3.1239 -6.01969 -11.51346 4.43572 -0.82366 119.75567 -36.82874 40.40589 106.5169 116.62886 -19.65209 -11.18509 -1.1829 55.50566 -1.25942 71.07761 -97.58735 6.38108 -2.27123 42.61412 -3.9816 -3.79663 -23.21647 -6.78454 -3.81177 -2.64291 45.77709 9.72275 -1.97461 -27.44397 -6.8777 2.84463 2.12329
0.00791 -0.00162 -0.01842 -184.80548 -37.21361 -2.09706 48.56533 3.13955 -6.26213 -11.28332 4.33806 -0.82367 119.48058 -36.5271 40.03519 106.56914 115.98457 -19.96654 -11.06633 -2.9817 53.46296 -3.57196 68.0895 -94.92578 5.79158 -1.55397 42.65633 -3.9701 -3.3068 -23.20345 -6.79948 -3.85524 -2.6663 45.76785 9.6751 -1.84239 -27.44079 -6.86562 2.8493 2.12443
0.00797 -0.00162 -0.01759 -184.97527 -37.27742 -2.0998 48.53762 3.15652 -6.50141 -11.0534 4.2504 -0.82368 119.26508 -36.28755 39.73484 106.62718 116.0695 -20.53817 -11.05156 -5.01366 51.45807 -5.65504 65.13043 -92.94463 5.40832 -1.01472 42.72628 -3.96179 -2.85685 -23.19269 -6.81307 -3.89432 -2.68729 45.78948 9.62511 -1.74208 -27.43962 -6.85475 2.85512 2.12658
0.00803 -0.00162 -0.01678 -185.13818 -37.3356 -2.099 48.50277 3.17121 -6.74761 -10.81035 4.16364 -0.8237 119.03189 -36.03146 39.40728 106.68599 116.01996 -21.08678 -11.01442 -7.06577 49.48493 -7.81236 62.08838 -90.54657 4.91254 -0.36789 42.7889 -3.94702 -2.3699 -23.18191 -6.82853 -3.93901 -2.71132 45.80557 9.58412 -1.60094 -27.43676 -6.84284 2.85555 2.12561
0.00805 -0.00163 -0.01591 -185.31956 -37.3934 -2.10488 48.47168 3.19017 -6.97888 -10.59702 4.06996 -0.82371 118.80625 -35.77958 39.10281 106.74019 115.87171 -21.54354 -10.97017 -8.95688 47.42556 -9.91512 59.21888 -88.70691 4.55977 0.13706 42.85195 -3.94525 -1.94571 -23.17 -6.84049 -3.97341 -2.72976 45.81652 9.52534 -1.52954 -27.43651 -6.83257 2.86684 2.13074
0.00797 -0.00165 -0.01492 -185.54689 -37.46212 -2.13041 48.46054 3.22138 -7.17744 -10.46031 3.96275 -0.82373 118.62703 -35.56502 38.88937 106.78465 115.82636 -21.89385 -10.96042 -10.57183 45.15558 -11.77074 56.81804 -88.73266 4.68734 0.15769 42.93043 -3.97742 -1.70024 -23.15532 -6.84283 -3.97904 -2.73266 45.83017 9.40962 -1.69731 -27.44428 -6.82771 2.9118 2.15512
0.00784 -0.00167 -0.01389 -185.79182 -37.53119 -2.16259 48.45438 3.25685 -7.35874 -10.35451 3.84964 -0.82374 118.45991 -35.35997 38.70482 106.82499 115.72476 -22.16401 -10.94931 -12.04156 42.80506 -13.54477 54.59758 -89.3584 4.97464 0.02686 43.01041 -4.02337 -1.52299 -23.13977 -6.84146 -3.97379 -2.72963 45.83997 9.27737 -1.93098 -27.45475 -6.82452 2.967 2.18524
0.00773 -0.00169 -0.01287 -186.0288 -37.59883 -2.19124 48.44593 3.29034 -7.54169 -10.23722 3.73928 -0.82376 118.2894 -35.15385 38.51081 106.8675 115.63732 -22.45717 -10.93668 -13.55915 40.49146 -15.33922 52.30358 -89.69983 5.19861 -0.02654 43.08861 -4.06507 -1.32261 -23.12513 -6.84139 -3.97256 -2.72873 45.84993 9.15799 -2.11052 -27.46396 -6.82032 3.01496 2.21114
0.00764 -0.00171 -0.01185 -186.26689 -37.67048 -2.22189 48.43598 3.32418 -7.75153 -10.10845 3.62735 -0.82378 118.10579 -34.92928 38.29608 106.90844 115.54736 -22.78817 -10.92641 -15.1342 38.16915 -17.22745 49.96642 -90.05029 5.37325 -0.10466 43.16982 -4.09837 -1.08633 -23.10821 -6.843 -3.9754 -2.7303 45.86445 9.01644 -2.3876 -27.4732 -6.81706 3.07366 2.24367
0.00749 -0.00174 -0.01083 -186.50583 -37.73428 -2.25007 48.43113 3.35809 -7.9005 -10.01194 3.51816 -0.82379 117.95394 -34.7474 38.1337 106.95167 115.46755 -23.02884 -10.91286 -16.56178 35.85153 -18.88703 47.7704 -90.53606 5.68905 -0.17169 43.24556 -4.15218 -0.94213 -23.09583 -6.84025 -3.96719 -2.72533 45.86941 8.91658 -2.48142 -27.48306 -6.81232 3.11268 2.26397
0.0072 -0.00177 -0.00982 -186.7489 -37.77755 -2.26902 48.43711 3.39319 -7.89146 -9.98778 3.4132 -0.8238 117.88682 -34.67877 38.10463 107.00377 115.44467 -23.03617 -10.89821 -17.62506 33.53303 -19.99666 45.85397 -91.29625 6.39861 -0.17138 43.30795 -4.26173 -1.03463 -23.09674 -6.82578 -3.93032 -2.7033 45.84849 8.94099 -2.02195 -27.49401 -6.80278 3.09264 2.2473
0.00686 -0.00181 -0.0088 -186.99093 -37.81289 -2.28544 48.44863 3.42785 -7.82059 -9.99663 3.31224 -0.82381 117.85177 -34.6539 38.12863 107.05812 115.43858 -22.95865 -10.88 -18.54625 31.22989 -20.86562 44.08699 -92.16964 7.23874 -0.15634 43.36464 -4.39091 -1.21788 -23.10217 -6.80714 -3.88282 -2.67496 45.81849 9.00707 -1.38171 -27.5055 -6.79179 3.05285 2.21846
0.00654 -0.00184 -0.0078 -187.22939 -37.85124 -2.30349 48.45911 3.46142 -7.77423 -9.99643 3.2126 -0.82382 117.80271 -34.61109 38.13184 107.11044 115.42226 -22.925 -10.85942 -19.53064 28.941 -21.80106 42.29357 -92.96601 7.99286 -0.14943 43.42281 -4.50959 -1.36068 -23.10518 -6.79077 -3.84067 -2.64977 45.79321 9.05063 -0.84498 -27.51676 -6.78169 3.02354 2.1964
0.00621 -0.00188 -0.00675 -187.48569 -37.89203 -2.3196 48.46346 3.50065 -7.74263 -9.97245 3.09927 -0.82383 117.75188 -34.56008 38.12219 107.16674 115.41384 -22.86593 -10.85525 -20.51595 26.55541 -22.9124 40.32663 -93.88932 8.86477 -0.14129 43.48569 -4.63571 -1.50289 -23.10969 -6.77268 -3.79594 -2.62317 45.76514 9.10842 -0.22074 -27.52808 -6.77063 2.98822 2.1693
0.0059 -0.00191 -0.0058 -187.70416 -37.92592 -2.33922 48.48189 3.52786 -7.66558 -10.0051 3.01578 -0.82385 117.71188 -34.53673 38.1512 107.21551 115.39406 -22.8406 -10.8164 -21.46688 24.38118 -23.60456 38.76015 -94.56889 9.52048 -0.13059 43.5374 -4.75043 -1.66647 -23.11216 -6.75724 -3.7542 -2.59811 45.74089 9.14709 0.26548 -27.53933 -6.76122 2.96062 2.14968
0.00566 -0.00192 -0.00511 -187.81985 -37.94217 -2.36784 48.53721 3.52246 -7.48054 -10.18862 3.01117 -0.82386 117.69703 -34.57642 38.27732 107.24157 115.3396 -22.93153 -10.68059 -22.36391 22.74319 -23.16801 38.21085 -94.54043 9.54688 -0.11474 43.55962 -4.83225 -1.87153 -23.10811 -6.75013 -3.72339 -2.57869 45.72848 9.11945 0.32289 -27.55053 -6.75667 2.95874 2.15392
0.00544 -0.00192 -0.00453 -187.89701 -37.95178 -2.40025 48.60651 3.50484 -7.25168 -10.42729 3.03687 -0.82388 117.69133 -34.64278 38.43969 107.26029 115.27343 -23.05929 -10.51046 -23.23022 21.32621 -22.32354 38.06731 -94.2655 9.3514 -0.09726 43.57073 -4.90125 -2.09393 -23.10183 -6.74585 -3.696 -2.5611 45.7204 9.07192 0.23652 -27.56158 -6.75382 2.96526 2.166
0.00522 -0.00193 -0.0039 -187.99093 -37.96484 -2.43179 48.66992 3.49249 -7.04124 -10.63894 3.0505 -0.82389 117.67944 -34.69872 38.58323 107.2833 115.21255 -23.16924 -10.35739 -24.10811 19.83676 -21.68635 37.77244 -94.09985 9.25588 -0.07984 43.58708 -4.97377 -2.30475 -23.09641 -6.74029 -3.66705 -2.54281 45.71102 9.03563 0.21806 -27.5725 -6.75023 2.96827 2.17437
0.00499 -0.00193 -0.00324 -188.08851 -37.97606 -2.4598 48.73196 3.48142 -6.83436 -10.86026 3.05743 -0.82391 117.67743 -34.74943 38.73887 107.30229 115.1523 -23.28106 -10.19786 -24.99365 18.22863 -20.94965 37.34714 -93.9325 9.16508 -0.06143 43.60277 -5.05656 -2.53367 -23.09175 -6.73456 -3.63773 -2.52372 45.69863 8.99113 0.19341 -27.58427 -6.7465 2.96965 2.1831
0.00477 -0.00193 -0.00268 -188.16868 -37.98931 -2.49592 48.79961 3.46467 -6.61119 -11.07378 3.08498 -0.82392 117.65636 -34.81629 38.87683 107.32793 115.08776 -23.39839 -10.04391 -25.85451 16.92137 -20.32473 37.28305 -93.73061 9.01461 -0.04919 43.61685 -5.11488 -2.72873 -23.08498 -6.72991 -3.61017 -2.50682 45.69346 8.95893 0.14719 -27.59423 -6.74345 2.97624 2.19288
0.00457 -0.0019 -0.00239 -188.21562 -38.01266 -2.55511 48.88358 3.4362 -6.34808 -11.25482 3.16641 -0.82394 117.58215 -34.92526 38.96027 107.37331 115.01421 -23.52612 -9.91197 -26.68378 16.38007 -20.1256 38.15827 -93.2907 8.71125 -0.01442 43.63276 -5.10669 -2.8177 -23.0724 -6.72754 -3.58627 -2.49555 45.70891 8.96113 0.05749 -27.59915 -6.74216 2.9992 2.20561
0.00437 -0.00185 -0.0022 -188.24535 -38.03777 -2.62203 48.97188 3.40226 -6.07153 -11.42544 3.26672 -0.82396 117.48792 -35.04854 39.02377 107.42566 114.93671 -23.65768 -9.78726 -27.48442 16.13624 -20.05176 39.37468 -92.85256 8.36125 0.00851 43.6468 -5.0746 -2.87308 -23.05785 -6.72618 -3.56413 -2.48645 45.73121 8.97684 -0.04693 -27.60227 -6.74145 3.02654 2.21886
0.00418 -0.00181 -0.00196 -188.27944 -38.06025 -2.68439 49.05541 3.37019 -5.80511 -11.59901 3.35555 -0.82398 117.40162 -35.1625 39.0941 107.47515 114.86086 -23.78527 -9.66036 -28.28009 15.76277 -19.90947 40.40695 -92.55781 8.06161 0.00815 43.6594 -5.05468 -2.94887 -23.04453 -6.72438 -3.54148 -2.47639 45.7493 8.98929 -0.13217 -27.60629 -6.74026 3.04925 2.23061
0.00396 -0.00177 -0.00172 -188.32688 -38.09027 -2.75136 49.15133 3.34029 -5.5199 -11.78214 3.45776 -0.824 117.32078 -35.28958 39.17533 107.52329 114.78498 -23.92388 -9.52735 -29.15121 15.37215 -19.79835 41.57571 -91.68376 7.63728 0.12093 43.6813 -5.02875 -3.00363 -23.02975 -6.72258 -3.51773 -2.46628 45.77216 8.98963 -0.27239 -27.60998 -6.73999 3.08308 2.24781
0.00379 -0.00173 -0.00152 -188.34281 -38.10504 -2.81046 49.22222 3.30477 -5.27153 -11.94205 3.53609 -0.82401 117.22346 -35.39202 39.22842 107.57575 114.70871 -24.03952 -9.40959 -29.8579 15.08682 -19.66121 42.53659 -91.97228 7.45684 0.0052 43.68349 -5.00988 -3.09394 -23.01756 -6.72097 -3.49663 -2.45678 45.78666 9.01776 -0.30308 -27.61393 -6.73797 3.09508 2.25387
0.00376 -0.00173 -0.00141 -188.27704 -38.07741 -2.8465 49.22304 3.25472 -5.12583 -12.04083 3.54438 -0.82402 117.08738 -35.42579 39.21015 107.64049 114.62914 -24.09409 -9.32934 -30.12518 15.00305 -19.39098 42.83137 -95.88938 8.02937 -0.82617 43.6319 -5.01593 -3.29029 -23.013 -6.71979 -3.48261 -2.44839 45.77616 9.12714 0.00224 -27.61896 -6.73055 3.04204 2.22718
